<?xml version="1.0" encoding="UTF-8"?>
<svg xmlns="http://www.w3.org/2000/svg" xmlns:xlink="http://www.w3.org/1999/xlink" width="1063px" height="410px" viewBox="0 0 1063 410" version="1.1">
<g id="surface1">
<path style="fill:none;stroke-width:2.29167;stroke-linecap:butt;stroke-linejoin:miter;stroke:rgb(0%,0%,0%);stroke-opacity:1;stroke-miterlimit:8;" d="M 343.005233 1379.107565 C 658.250323 1433.725991 973.495414 1488.355373 1244.637553 1489.976944 C 1515.790657 1491.60947 1969.869032 1388.891768 1969.869032 1388.891768 C 2194.188794 1355.737233 2367.881174 1293.241044 2590.567086 1291.071646 C 2813.263964 1288.891292 3159.541216 1339.444836 3305.995473 1375.853468 " transform="matrix(0.356233,0,0,0.356522,-115.775804,-378.982609)"/>
<path style="fill:none;stroke-width:2.29167;stroke-linecap:butt;stroke-linejoin:miter;stroke:rgb(0%,0%,0%);stroke-opacity:1;stroke-miterlimit:8;" d="M 333.004762 1261.105469 C 648.348542 1315.734851 963.703287 1370.353277 1234.95508 1371.974848 C 1506.184942 1373.607374 1960.416833 1270.889672 1960.416833 1270.889672 C 2184.824318 1237.735137 2358.56056 1175.238948 2581.334196 1173.06955 C 2804.085901 1170.889196 3150.494738 1221.44274 3297.003822 1257.851372 " transform="matrix(0.356233,0,0,0.356522,-115.775804,-378.982609)"/>
<path style="fill:none;stroke-width:2.29167;stroke-linecap:butt;stroke-linejoin:miter;stroke:rgb(0%,0%,0%);stroke-opacity:1;stroke-miterlimit:8;" d="M 330.000235 1153.54497 C 645.245326 1208.448266 960.490416 1263.340606 1231.643521 1264.984089 C 1502.78566 1266.616616 1956.875 1163.394912 1956.875 1163.394912 C 2181.194761 1130.065072 2354.876176 1067.251143 2577.573054 1065.070789 C 2800.258966 1062.879478 3146.536218 1113.685023 3293.00144 1150.279916 " transform="matrix(0.356233,0,0,0.356522,-115.775804,-378.982609)"/>
<path style="fill:none;stroke-width:2.29167;stroke-linecap:butt;stroke-linejoin:miter;stroke:rgb(0%,0%,0%);stroke-opacity:1;stroke-miterlimit:8;" d="M 343.005233 2101.111662 C 658.250323 2155.730088 973.495414 2210.348514 1244.637553 2211.98104 C 1515.790657 2213.613567 1969.869032 2110.884909 1969.869032 2110.884909 C 2194.188794 2077.74133 2367.881174 2015.245141 2590.567086 2013.064787 C 2813.263964 2010.895389 3159.541216 2061.437976 3305.995473 2097.846608 " transform="matrix(0.356233,0,0,0.356522,-115.775804,-378.982609)"/>
<path style="fill:none;stroke-width:2.29167;stroke-linecap:butt;stroke-linejoin:miter;stroke:rgb(0%,0%,0%);stroke-opacity:1;stroke-miterlimit:8;" d="M 333.004762 1983.109566 C 648.348542 2037.727992 963.703287 2092.346418 1234.95508 2093.978944 C 1506.184942 2095.611471 1960.416833 1992.893769 1960.416833 1992.893769 C 2184.824318 1959.739234 2358.56056 1897.243045 2581.334196 1895.073647 C 2804.085901 1892.893293 3150.494738 1943.43588 3297.003822 1979.855469 " transform="matrix(0.356233,0,0,0.356522,-115.775804,-378.982609)"/>
<path style="fill:none;stroke-width:2.29167;stroke-linecap:butt;stroke-linejoin:miter;stroke:rgb(0%,0%,0%);stroke-opacity:1;stroke-miterlimit:8;" d="M 333.004762 1875.549066 C 648.348542 1930.452363 963.703287 1985.344703 1234.95508 1986.977229 C 1506.184942 1988.620713 1960.416833 1885.388053 1960.416833 1885.388053 C 2184.824318 1852.069169 2358.56056 1789.25524 2581.334196 1787.074886 C 2804.085901 1784.883575 3150.494738 1835.678163 3297.003822 1872.284013 " transform="matrix(0.356233,0,0,0.356522,-115.775804,-378.982609)"/>
</g>
</svg>
